<?xml version="1.0" encoding="UTF-8"?>
<!-- Created with Inkscape (http://www.inkscape.org/) -->
<svg width="16" height="16" version="1.1" viewBox="0 0 16 16" xmlns="http://www.w3.org/2000/svg" xmlns:cc="http://creativecommons.org/ns#" xmlns:dc="http://purl.org/dc/elements/1.1/" xmlns:rdf="http://www.w3.org/1999/02/22-rdf-syntax-ns#">
 <metadata>
  <rdf:RDF>
   <cc:Work rdf:about="">
    <dc:format>image/svg+xml</dc:format>
    <dc:type rdf:resource="http://purl.org/dc/dcmitype/StillImage"/>
    <dc:title/>
   </cc:Work>
  </rdf:RDF>
 </metadata>
 <path d="m1.9984 3.9968v5.1442h0.85737v1.7147h-0.85737v5.1442h5.1442v-0.85737h1.7147v0.85737h5.1442v-5.1442h-0.85737v-1.7147h0.85737v-5.1442h-5.1442v0.85737h-1.7147v-0.85737h-5.1442zm0.85737 0.85737h3.4295v3.4295h-3.4295v-3.4295zm6.859 0h3.4295v3.4295h-3.4295v-3.4295zm-2.5721 0.85737h1.7147v3.4295h3.4295v1.7147h-3.4295v3.4295h-1.7147v-3.4295h-3.4295v-1.7147h3.4295v-3.4295zm-4.2869 6.0016h3.4295v3.4295h-3.4295v-3.4295zm6.859 0h3.4295v3.4295h-3.4295v-3.4295z" fill="#f0843d"/>
 <path d="m11.487 0.48236c-0.32464-0.32455-0.70645-0.48236-1.1674-0.48236-0.52985 0-0.93347 0.18424-1.2344 0.564l-1.0854 1.3981-1.086-1.4002c-0.29962-0.37804-0.70302-0.56187-1.2327-0.56187-0.46098 0-0.84295 0.15782-1.1677 0.48236-0.32445 0.32453-0.48215 0.7063-0.48215 1.1673 0 0.46107 0.15772 0.84286 0.48236 1.1674 0.27798 0.27808 0.59684 0.43261 0.98291 0.47274h5.0109l0.0043-4.13e-4c0.37729-0.039715 0.69593-0.19422 0.97434-0.47233 0.32464-0.32466 0.48234-0.70652 0.48234-1.1674 2.4e-5 -0.46083-0.1577-0.84273-0.48232-1.1673zm-4.062 2.0246h-1.743c-0.23667 0-0.44106-0.084222-0.60691-0.25018-0.16607-0.16598-0.25018-0.37012-0.25018-0.60693 0-0.23679 0.084102-0.44095 0.25018-0.60691 0.16585-0.16595 0.37002-0.25018 0.60691-0.25018 0.25596 0 0.46482 0.094387 0.62342 0.28314l1.1197 1.4311zm1.1604 0 1.1132-1.4338c0.15603-0.18597 0.36489-0.28035 0.62105-0.28035 0.2367 0 0.44086 0.084102 0.60672 0.25005 0.16608 0.16607 0.25018 0.37023 0.25018 0.60703 0 0.23681-0.0841 0.44095-0.25018 0.60693-0.16585 0.16595-0.37002 0.25018-0.60672 0.25018h-1.7342z" fill="#f0843d"/>
</svg>
